<svg id="Layer_1" data-name="Layer 1" xmlns="http://www.w3.org/2000/svg" viewBox="0 0 300 300"><defs><style>.cls-1{fill:#f0f1f2;}.cls-2{fill:#50bcec;}</style></defs><rect class="cls-1" x="26.85" y="22.65" width="244.16" height="244.16" rx="21.6"/><rect class="cls-2" x="148.4" y="140.49" width="1.06" height="8.47"/><path class="cls-2" d="M229.14,77.61,217.38,89.37a1,1,0,0,1-.7.3h-7.36l-49.17,52.58,40.35,67.26a2.68,2.68,0,0,1-2.29,4.06h-14.4a2.66,2.66,0,0,1-2.3-1.3l-34-56.64-41.47,44.16h.12L93.76,213a2,2,0,0,1-1.42.62h-22A2,2,0,0,1,69,210.23l9.85-9.86a2,2,0,0,1,1.39-.58h6l53.62-57-38.38-64a1.91,1.91,0,0,1,1.63-2.9h16.21a1.88,1.88,0,0,1,1.63.92l31.54,52.55L193.82,86,203,76.21a1,1,0,0,1,.72-.32h24.69A1,1,0,0,1,229.14,77.61Z"/></svg>