<svg id="Layer_1" data-name="Layer 1" xmlns="http://www.w3.org/2000/svg" viewBox="0 0 300 300"><defs><style>.cls-1{fill:#50bcec;}</style></defs><path class="cls-1" d="M157.28,142.61a2.45,2.45,0,0,0-2.24,2.62v24.92a2.45,2.45,0,0,0,2.24,2.64h2.07a2.45,2.45,0,0,0,2.24-2.64V145.23a2.45,2.45,0,0,0-2.24-2.62Z"/><path class="cls-1" d="M118.33,172.79h2.06a2.46,2.46,0,0,0,2.26-2.64v-14H146a2.45,2.45,0,0,0,2.23-2.64v-2.45a2.45,2.45,0,0,0-2.23-2.62H118.33a2.09,2.09,0,0,0-1.59.78,2.85,2.85,0,0,0-.65,1.85v19.08A2.47,2.47,0,0,0,118.33,172.79Z"/><path class="cls-1" d="M171.34,178.24H145.26a3,3,0,0,0-2.69,3.17V182h-.07v19a3,3,0,0,0,2.73,3.17h26.08A3,3,0,0,0,174,201v-.59h.07v-19A3,3,0,0,0,171.34,178.24Z"/><path class="cls-1" d="M210.31,178.24h-26.1a3,3,0,0,0-2.71,3.17V201a3,3,0,0,0,2.7,3.17h26.1A3,3,0,0,0,213,201V181.41A3,3,0,0,0,210.31,178.24Z"/><path class="cls-1" d="M132.37,178.24h-26.1a3,3,0,0,0-2.71,3.17V201a3,3,0,0,0,2.7,3.17h26.1a3,3,0,0,0,2.71-3.17V181.41A3,3,0,0,0,132.37,178.24Z"/><path class="cls-1" d="M145.13,136.46h26.1a3,3,0,0,0,2.71-3.17V113.68a3,3,0,0,0-2.7-3.17h-26.1a3,3,0,0,0-2.7,3.17v19.61A3,3,0,0,0,145.13,136.46Z"/><path class="cls-1" d="M168.37,151.06v2.45a2.46,2.46,0,0,0,2.24,2.64H194v14a2.48,2.48,0,0,0,2.25,2.64h2.06a2.47,2.47,0,0,0,2.25-2.64V151.07a2.9,2.9,0,0,0-.64-1.85,2.1,2.1,0,0,0-1.61-.78H170.61A2.46,2.46,0,0,0,168.37,151.06Z"/></svg>