<svg id="Layer_1" data-name="Layer 1" xmlns="http://www.w3.org/2000/svg" viewBox="0 0 890.21 205.76"><defs><style>.cls-1{fill:#4ebcec;}.cls-2{fill:#231f20;}</style></defs><path class="cls-1" d="M463,430.67l-16.64,16.64a1.42,1.42,0,0,1-1,.42H435L365.4,522.12l57.09,95.16a3.79,3.79,0,0,1-3.25,5.75H398.87a3.79,3.79,0,0,1-3.25-1.84l-48.08-80.14-58.67,62.48h.18l-17.57,18.62a2.77,2.77,0,0,1-2,.88H238.38a2.77,2.77,0,0,1-2-4.73l14-13.95a2.77,2.77,0,0,1,1.95-.82h8.42l75.87-80.69-54.3-90.49a2.7,2.7,0,0,1,2.31-4.09h22.92a2.67,2.67,0,0,1,2.32,1.29l44.63,74.36L413,442.48l13-13.78a1.41,1.41,0,0,1,1-.46H462A1.42,1.42,0,0,1,463,430.67Z" transform="translate(-94.79 -428.24)"/><path class="cls-2" d="M171.55,461.45H160.41a2.49,2.49,0,0,0-2.43,2l-17.7,83.86a52,52,0,0,1-3.58,11.13,27,27,0,0,1-5.91,8.31,24.06,24.06,0,0,1-8.79,5.17,37.32,37.32,0,0,1-12,1.78H99.24a2.53,2.53,0,0,0-2.43,2l-2,9.55a2.34,2.34,0,0,0,2.22,2.88H107q20.55,0,32.87-10.34t16.54-30.41l17.44-83.12A2.34,2.34,0,0,0,171.55,461.45Z" transform="translate(-94.79 -428.24)"/><path class="cls-2" d="M264.65,476.06H219.5a3.87,3.87,0,0,0-3.61,3l-7.62,36a2.35,2.35,0,0,0,2.35,3h39.76a2.35,2.35,0,0,1,2.35,3l-1.6,7.53a3.88,3.88,0,0,1-3.61,3H207.77a3.88,3.88,0,0,0-3.62,3l-7.87,37.23a2.34,2.34,0,0,0,2.35,3h45.15a2.35,2.35,0,0,1,2.35,3l-1.6,7.54a3.87,3.87,0,0,1-3.61,3H179.39a2.35,2.35,0,0,1-2.35-3l25.33-119.67a3.87,3.87,0,0,1,3.61-3h61.53a2.35,2.35,0,0,1,2.35,3l-1.6,7.54A3.87,3.87,0,0,1,264.65,476.06Z" transform="translate(-94.79 -428.24)"/><path class="cls-2" d="M455.65,464.72h10.42a2.35,2.35,0,0,1,2.35,3l-4,18.88a2.35,2.35,0,0,0,2.36,3h19.77a2.34,2.34,0,0,1,2.35,3l-1.59,7.54a3.89,3.89,0,0,1-3.62,3H463.92a3.86,3.86,0,0,0-3.61,3l-11.68,55.15c-2.05,9.72.82,13.14,10.9,13.14h9.08a2.34,2.34,0,0,1,2.35,3l-1.67,7.9a3.89,3.89,0,0,1-3.61,3H453.9c-17.46,0-25.83-7.2-21.64-27L452,467.7A3.89,3.89,0,0,1,455.65,464.72Z" transform="translate(-94.79 -428.24)"/><path class="cls-2" d="M513.09,588.19H502.68a2.34,2.34,0,0,1-2.35-3l19.61-92.67a3.88,3.88,0,0,1,3.61-3H534a2.34,2.34,0,0,1,2.35,3l-.75,3.58c-.58,2.71,2.46,4,4.73,2A42.07,42.07,0,0,1,566,487.86a2.36,2.36,0,0,1,2.56,3l-2.3,10.86a3.87,3.87,0,0,1-3.61,3h-1.34c-15.66,0-29,7-33.86,29.88L516.7,585.21A3.87,3.87,0,0,1,513.09,588.19Z" transform="translate(-94.79 -428.24)"/><path class="cls-2" d="M619.31,589.81c-28.08,0-44.59-19.8-38-51.12,6.59-31.13,30.72-50.75,59.52-50.75,28.61,0,43.07,20.16,37.35,47.16-.55,2.6-1.11,4.83-1.8,7.16a3.89,3.89,0,0,1-3.55,2.73h-72.8a3.86,3.86,0,0,0-3.68,3.4C595.17,566.21,606.48,576,622.24,576c13.92,0,24.46-6.72,30.52-16.39a3.78,3.78,0,0,1,3.1-1.79h11.45c2.07,0,3.11,2.08,2,4A57.39,57.39,0,0,1,619.31,589.81Zm-16.14-58.13h55.76a3.9,3.9,0,0,0,3.67-3.21c2.28-17.23-9.43-26.67-25.39-26.67-15,0-29.65,9.35-36.26,26.4A2.4,2.4,0,0,0,603.17,531.68Z" transform="translate(-94.79 -428.24)"/><path class="cls-2" d="M749.69,487.94c14.06,0,23.58,5.49,28.88,12.67,1.45,2,5,.68,5.58-2l1.28-6a3.88,3.88,0,0,1,3.61-3h10.6a2.35,2.35,0,0,1,2.35,3l-19.61,92.67a3.89,3.89,0,0,1-3.62,3H768.17a2.34,2.34,0,0,1-2.35-3l1.34-6.34c.57-2.71-2.46-4-4.73-2a52.52,52.52,0,0,1-34.48,13c-26.28,0-42.24-20.7-35.76-51.3C698.7,507.74,723.23,487.94,749.69,487.94Zm.23,14.22c-18,0-36.08,13.14-41,36.35s7.49,36.9,25.48,36.9,36.34-13.5,41.25-36.72C780.5,515.84,767.91,502.16,749.92,502.16Z" transform="translate(-94.79 -428.24)"/><path class="cls-2" d="M967,532.4c4.27-20.16-4.36-30.42-20.56-30.42-16.55,0-30.14,10.62-34.63,31.86l-10.88,51.37a3.88,3.88,0,0,1-3.61,3H887a2.34,2.34,0,0,1-2.35-3l11.17-52.81C900.13,512.24,891.5,502,875.3,502c-16.56,0-30.14,10.62-34.64,31.86l-10.87,51.37a3.89,3.89,0,0,1-3.61,3H815.76a2.35,2.35,0,0,1-2.35-3L833,492.54a3.89,3.89,0,0,1,3.62-3h10.41a2.34,2.34,0,0,1,2.35,3l-.62,2.94c-.56,2.64,2.32,3.89,4.61,2.07a45.28,45.28,0,0,1,28.16-9.79c14.26,0,25.25,5.58,30,17,.79,1.93,3.54,1.9,5.14,0a47.11,47.11,0,0,1,36-16.95c22.5,0,37,14,31,42.3L972,585.21a3.89,3.89,0,0,1-3.62,3H958.13a2.34,2.34,0,0,1-2.35-3Z" transform="translate(-94.79 -428.24)"/><path class="cls-1" d="M835.87,606.29H833a1.7,1.7,0,0,0-1.68,1.33l-1.5,8.6a1.87,1.87,0,0,1-1.73,1.33h-11a1.15,1.15,0,0,1-1.21-1.33l1.5-8.6a1.17,1.17,0,0,0-1.27-1.33h-2.83a1.68,1.68,0,0,0-1.67,1.33l-4.33,24.82a1.1,1.1,0,0,0,1.21,1.33h2.83a1.74,1.74,0,0,0,1.73-1.33l1.56-9.06a1.74,1.74,0,0,1,1.67-1.33h11.09a1.13,1.13,0,0,1,1.21,1.33L827,632.44a1.11,1.11,0,0,0,1.21,1.33h2.83a1.76,1.76,0,0,0,1.74-1.33l4.33-24.82A1.18,1.18,0,0,0,835.87,606.29Z" transform="translate(-94.79 -428.24)"/><path class="cls-1" d="M876.65,606.92c-1.68-.63-3.64-.92-7.91-.92a35.77,35.77,0,0,0-6.41.4,10.53,10.53,0,0,0-6.18,3.24c-1.79,2-2.42,4-3.69,11.08a37.64,37.64,0,0,0-.75,6.06c0,3.06.92,4.8,3.11,6,1.68.92,3.87,1.21,8.37,1.21a43.51,43.51,0,0,0,6.59-.35,10.31,10.31,0,0,0,6.4-3.4c1.62-2.08,2.2-3.87,3.35-10.51a38.8,38.8,0,0,0,.81-6.52C880.34,610,879.13,608,876.65,606.92Zm-3,12.94c-.86,5.13-1,5.83-1.84,7.21-1.1,2-2.43,2.43-6.82,2.43-4.61,0-5.94-.23-6.64-1.1-.86-1.15-.92-2.42-.05-7.22l.81-4.5c.46-2.71,1.15-4.16,2.3-5s2.37-1.1,6-1.1c3.41,0,4.5.06,5.43.46a3,3,0,0,1,1.61,3.06C874.45,615.41,874.39,615.53,873.64,619.86Z" transform="translate(-94.79 -428.24)"/><path class="cls-1" d="M933.25,606.29h-7a1.86,1.86,0,0,0-1.5.81l-7,11.95c-.75,1.27-1.27,2.25-3.06,5.71l-1,1.91h-.18l-.34-2c-.64-3.53-.81-4.39-1.16-5.72L909,607.1a1.17,1.17,0,0,0-1.21-.81H901a1.8,1.8,0,0,0-1.73,1.33l-4.33,24.82a1.17,1.17,0,0,0,1.27,1.33H899a1.7,1.7,0,0,0,1.68-1.33L903,618.76c.29-1.68.41-2.54.87-6l.17-2h.18l.34,1.85c.7,3.58.81,4.44,1.21,5.77L909.52,633a1.27,1.27,0,0,0,1.21.81H914a1.8,1.8,0,0,0,1.5-.87l8.84-14.6c.69-1.22,1.15-2.2,3.06-5.78l1-1.9h.17l-.46,2c-.81,3.64-.93,4.16-1.27,6.12l-2.43,13.68a1.17,1.17,0,0,0,1.27,1.33h2.77a1.7,1.7,0,0,0,1.68-1.33l4.33-24.82A1.14,1.14,0,0,0,933.25,606.29Z" transform="translate(-94.79 -428.24)"/><path class="cls-1" d="M972.72,606.29H955.05a1.7,1.7,0,0,0-1.68,1.33L949,632.44a1.14,1.14,0,0,0,1.22,1.33H968.1a1.68,1.68,0,0,0,1.67-1.33l.29-1.67a1.15,1.15,0,0,0-1.21-1.39h-12a1.17,1.17,0,0,1-1.27-1.33l.92-5.08a1.69,1.69,0,0,1,1.68-1.32h11.14a1.68,1.68,0,0,0,1.67-1.33l.23-1.21a1.17,1.17,0,0,0-1.27-1.33H958.86a1.17,1.17,0,0,1-1.27-1.33l.81-4.5a1.73,1.73,0,0,1,1.67-1.33H972a1.82,1.82,0,0,0,1.74-1.33l.29-1.67A1.18,1.18,0,0,0,972.72,606.29Z" transform="translate(-94.79 -428.24)"/></svg>